<svg id="layer1" xmlns="http://www.w3.org/2000/svg" width="81" height="28.481" viewBox="0 0 81 28.481">
  <g id="g124" transform="translate(0 0)">
    <g id="Group_2034" data-name="Group 2034">
      <g id="g132">
        <g id="Group_2033" data-name="Group 2033">
          <path id="path134" d="M-14.894,0c1.938,0,2.547,1.39,3.058,2.778.215.589,5.251,14.382,5.4,14.8a.294.294,0,0,1-.165.374c-.179.068-2.8,1.085-2.941,1.14a.28.28,0,0,1-.36-.17c-.054-.143-1.141-3.15-1.263-3.485h-7.465c-.118.336-1.217,3.349-1.266,3.485a.277.277,0,0,1-.361.17c-.155-.061-2.781-1.079-2.938-1.14a.3.3,0,0,1-.167-.374c.185-.516,5.146-14.088,5.4-14.8C-17.466,1.411-16.836,0-14.894,0m-8.862,24.68a.286.286,0,0,0-.282.29v3.224a.284.284,0,0,0,.282.288H-6.04a.285.285,0,0,0,.285-.288V24.97a.287.287,0,0,0-.285-.29H-23.756M-14.911,4.5l-2.523,7.577h5.088L-14.879,4.5ZM22.952,16.928a2.578,2.578,0,0,1-.909.156c-.6,0-.938-.239-.938-.857,0-.645.425-.861,1.259-.861a1.786,1.786,0,0,1,.5.062v.462a4.046,4.046,0,0,0,.089,1.038m2.145.739a2.907,2.907,0,0,1-.562-1.928V14.006a2.4,2.4,0,0,0-.355-1.609c-.343-.482-.915-.691-1.967-.691a8.714,8.714,0,0,0-2.166.259L20.3,13.2a10.631,10.631,0,0,1,1.318-.123c1.117,0,1.244.161,1.244,1v.313a3.242,3.242,0,0,0-.851-.114c-1.681,0-2.569.823-2.569,2.184a1.934,1.934,0,0,0,2.1,1.973,3.4,3.4,0,0,0,1.24-.226,3.333,3.333,0,0,0,.588-.33,1.782,1.782,0,0,0,.642.54l1.08-.746Zm16.629-.739a2.578,2.578,0,0,1-.909.156c-.606,0-.945-.239-.945-.857,0-.645.43-.861,1.267-.861a1.765,1.765,0,0,1,.5.062v.462a4,4,0,0,0,.089,1.038m2.147.739a2.89,2.89,0,0,1-.563-1.928V14.006a2.377,2.377,0,0,0-.36-1.609c-.339-.482-.912-.691-1.967-.691a8.747,8.747,0,0,0-2.169.259l.249,1.231a10.655,10.655,0,0,1,1.33-.123c1.11,0,1.242.161,1.242,1v.313a3.237,3.237,0,0,0-.855-.114c-1.683,0-2.574.823-2.574,2.184a1.937,1.937,0,0,0,2.113,1.973,3.355,3.355,0,0,0,1.238-.226,3.222,3.222,0,0,0,.588-.33,1.8,1.8,0,0,0,.645.54Zm13.089.617s-.922-1.964-1.147-2.411c-.254-.5-.489-.851-1.008-.976v-.028c.348-.066.624-.277.927-.92.287-.626.372-.762.54-.911a.473.473,0,0,1,.392-.095l.085-1.158a4.2,4.2,0,0,0-.783-.019,1.251,1.251,0,0,0-.92.386,2.742,2.742,0,0,0-.445.73c-.157.325-.281.586-.445.916s-.239.491-.675.491H53.2V9.159H51.517v9.124H53.2V15.66l.23,0c.483,0,.568.121.823.63.3.607.871,2,.871,2h1.839Zm-47.419,0h1.943L8.547,9.312a3.533,3.533,0,0,0-1.1-.168,2.531,2.531,0,0,0-.953.168L3.384,18.284H5.248S5.5,17.5,5.8,16.522H9.017c.288.974.526,1.762.526,1.762M6.269,15.017l.622-2.081c.214-.726.538-1.878.538-1.878h.053s.3,1.194.5,1.865c.074.267.588,2.094.588,2.094h-2.3Zm21.695-1.026A1.079,1.079,0,1,0,29.04,15.07a1.079,1.079,0,0,0-1.075-1.079M13.792,9.159H12.1v9.123h1.688V9.159Zm33.529,4c.933.02,1.048.212,1.048.995v4.132h1.672V14.006a2.38,2.38,0,0,0-.357-1.609c-.343-.482-1.018-.691-2.158-.691a8.709,8.709,0,0,0-2.773.4v6.182h1.69V13.235a4.587,4.587,0,0,1,.878-.078M17.966,9c-1.055,0-1.629.209-1.967.69a2.412,2.412,0,0,0-.358,1.62v.8H14.8v1.364h.838v4.818h1.673l0-4.818h1.668V12.1H17.31l0-.731c0-.837.127-1,1.245-1,.121,0,.257.007.4.017l.264-1.311A9.652,9.652,0,0,0,17.966,9m13.427.085C31.967,9.048,33.25,9,34.056,9c.147,0,.3,0,.452.009A2.391,2.391,0,0,1,37,11.515a1.862,1.862,0,0,1-1.41,1.9,2.193,2.193,0,0,1,1.772,2.275,2.676,2.676,0,0,1-.652,1.9,3.413,3.413,0,0,1-2.477.84c-.981,0-2.212-.031-2.838-.068V9.082Zm2.663,1.495c-.279,0-.624.005-.966.017v2.191h.967a1.25,1.25,0,0,0,.9-.313,1.071,1.071,0,0,0,.305-.794.989.989,0,0,0-1.084-1.1Zm.035,6.279h.073a1.283,1.283,0,0,0,1.424-1.409,1.253,1.253,0,0,0-.37-.875,1.422,1.422,0,0,0-1.035-.388H33.089v2.662c.308.007.648.008,1,.01" transform="translate(24.038)" fill="#ee2a23"/>
        </g>
      </g>
    </g>
  </g>
</svg>
