<svg id="commerce" xmlns="http://www.w3.org/2000/svg" width="47.706" height="28.781" viewBox="0 0 47.706 28.781">
  <path id="Path_31" data-name="Path 31" d="M65.474,121.955a14.308,14.308,0,1,0,9.7,24.887h0a14.365,14.365,0,0,0,1.45-1.532H73.7a13.847,13.847,0,0,1-1.065-1.475h5.044a14.306,14.306,0,0,0,.832-1.531H71.8a13.932,13.932,0,0,1-.6-1.5h7.9a14.278,14.278,0,0,0,.735-4.538,14.435,14.435,0,0,0-.329-3.065H70.786a14.567,14.567,0,0,1,.407-1.5H79.1a14.344,14.344,0,0,0-.616-1.532H71.8a13.8,13.8,0,0,1,.819-1.5h5.041a14.215,14.215,0,0,0-1.108-1.531H73.743a13.08,13.08,0,0,1,1.431-1.445,14.2,14.2,0,0,0-9.607-3.73Z" transform="translate(-51.288 -121.955)" fill="#931b1d"/>
  <path id="Path_32" data-name="Path 32" d="M225.932,136.268a14.277,14.277,0,1,1-28.554.006v-.006a14.277,14.277,0,1,1,28.554-.008S225.932,136.263,225.932,136.268Z" transform="translate(-178.226 -121.955)" fill="#f16622"/>
  <path id="Path_33" data-name="Path 33" d="M225.932,137.479a14.277,14.277,0,1,1-28.554.007v-.007a14.277,14.277,0,1,1,28.554-.007S225.932,137.476,225.932,137.479Z" transform="translate(-178.226 -123.008)" fill="#feaf00"/>
  <path id="Path_34" data-name="Path 34" d="M65.474,123.193a14.308,14.308,0,1,0,9.7,24.888h0a14.143,14.143,0,0,0,1.45-1.532H73.7a13.735,13.735,0,0,1-1.065-1.473h5.044a14.43,14.43,0,0,0,.832-1.532H71.8a14.042,14.042,0,0,1-.6-1.5h7.9a14.286,14.286,0,0,0,.735-4.538,14.43,14.43,0,0,0-.329-3.064H70.786a14.567,14.567,0,0,1,.407-1.5H79.1a14.36,14.36,0,0,0-.616-1.533H71.8a13.93,13.93,0,0,1,.819-1.5h5.041a14.481,14.481,0,0,0-1.108-1.532H73.743a13.254,13.254,0,0,1,1.431-1.445,14.2,14.2,0,0,0-9.607-3.73Z" transform="translate(-51.288 -123.031)" fill="#f13026"/>
</svg>
