<svg id="logotype" xmlns="http://www.w3.org/2000/svg" width="33.576" height="33.667" viewBox="0 0 33.576 33.667">
  <ellipse id="Ellipse_101" data-name="Ellipse 101" cx="16.788" cy="16.833" rx="16.788" ry="16.833" fill="#7aa5da"/>
  <path id="Path_724" data-name="Path 724" d="M127.8,132.616a.91.91,0,0,1,1.238,1.007l-3.06,14.065a.975.975,0,0,1-1.513.557l-4.619-3.26L117.49,147.3a.8.8,0,0,1-1.3-.3l-1.7-5.186-4.553-1.293a.621.621,0,0,1-.053-1.188Zm-2.246,3.121a.211.211,0,0,0-.258-.334l-9.828,5.862a.422.422,0,0,0-.191.493l1.34,5.66a.086.086,0,0,0,.167-.015l.3-4.313a.421.421,0,0,1,.148-.275Z" transform="translate(-102.427 -123.609)" fill="#fff"/>
  <path id="Path_725" data-name="Path 725" d="M205.73,176.38a.209.209,0,0,1,.248.334l-8,7.077a.427.427,0,0,0-.142.275l-.288,4.313a.082.082,0,0,1-.161.015l-1.289-5.66a.429.429,0,0,1,.184-.493Z" transform="translate(-183.057 -164.548)" fill="#9ec2e5"/>
  <path id="Path_726" data-name="Path 726" d="M116.667,147.477a.753.753,0,0,1-.478-.48l-1.7-5.186-4.555-1.293a.621.621,0,0,1-.053-1.188l17.923-6.714a.938.938,0,0,1,1.114.35.938.938,0,0,0-.146-.167l-12.16,9.543v.418l-.067-.047.067,2.631v2.11a.446.446,0,0,0,.054.02v0Z" transform="translate(-102.428 -123.632)" fill="#fff"/>
  <g id="Group_2006" data-name="Group 2006" transform="translate(14.47 23.92)">
    <path id="Path_729" data-name="Path 729" d="M227.713,362.73c-.02.017-.04.032-.061.047h0C227.673,362.761,227.693,362.747,227.713,362.73Z" transform="translate(-227.159 -362.73)" fill="#dadde0"/>
    <path id="Path_730" data-name="Path 730" d="M227.636,363.437h0s0,0,0,0Z" transform="translate(-227.143 -363.392)" fill="#dadde0"/>
    <path id="Path_731" data-name="Path 731" d="M225.6,363.525a.782.782,0,0,0,.131-.07A.838.838,0,0,1,225.6,363.525Z" transform="translate(-225.24 -363.408)" fill="#dadde0"/>
    <path id="Path_732" data-name="Path 732" d="M219.981,364.929a.75.75,0,0,0,.293-.027.7.7,0,0,1-.214.032.618.618,0,0,1-.065,0A.027.027,0,0,1,219.981,364.929Z" transform="translate(-219.981 -364.762)" fill="#dadde0"/>
  </g>
  <g id="Group_2007" data-name="Group 2007" transform="translate(14.412 24.081)">
    <path id="Path_733" data-name="Path 733" d="M220.253,365.353a.618.618,0,0,1-.065,0A.618.618,0,0,0,220.253,365.353Z" transform="translate(-220.122 -365.341)" fill="#fff"/>
    <path id="Path_734" data-name="Path 734" d="M219.207,365.219a.029.029,0,0,0,.013,0,.432.432,0,0,1-.066-.009A.415.415,0,0,0,219.207,365.219Z" transform="translate(-219.154 -365.212)" fill="#fff"/>
  </g>
  <g id="Group_2008" data-name="Group 2008" transform="translate(14.304 24.053)">
    <path id="Path_735" data-name="Path 735" d="M218.884,365.155a.444.444,0,0,1-.053-.007l-.022,0C218.833,365.148,218.859,365.153,218.884,365.155Z" transform="translate(-218.726 -365.121)" fill="#dadde0"/>
    <path id="Path_736" data-name="Path 736" d="M217.516,364.782l.073.021-.03-.007a.039.039,0,0,1-.012,0A.169.169,0,0,1,217.516,364.782Z" transform="translate(-217.516 -364.782)" fill="#dadde0"/>
  </g>
  <g id="Group_2009" data-name="Group 2009" transform="translate(14.284 24.047)">
    <path id="Path_737" data-name="Path 737" d="M218.188,365.006l.03.007A.142.142,0,0,1,218.188,365.006Z" transform="translate(-218.126 -364.986)" fill="#fff"/>
    <path id="Path_738" data-name="Path 738" d="M217.242,364.7a.165.165,0,0,0,.031.01.292.292,0,0,1-.05-.015Z" transform="translate(-217.223 -364.696)" fill="#fff"/>
  </g>
  <path id="Path_739" data-name="Path 739" d="M217.177,364.654l-.019-.006s0,0,0,0v0A.1.1,0,0,0,217.177,364.654Z" transform="translate(-202.875 -340.602)" fill="#dadde0"/>
  <path id="Path_740" data-name="Path 740" d="M216.343,331.511l.052,2.13a.421.421,0,0,1-.052-.02Z" transform="translate(-202.117 -309.614)" fill="#d1d1d1"/>
  <path id="Path_741" data-name="Path 741" d="M215.407,290.632v2.585l-.064-2.631Z" transform="translate(-201.182 -271.383)" fill="#dadde0"/>
  <path id="Path_742" data-name="Path 742" d="M205.978,176.714l-8,7.077a.427.427,0,0,0-.142.275l-.288,4.314a.083.083,0,0,1-.162.016l-1.288-5.66a.429.429,0,0,1,.184-.493l9.451-5.862A.209.209,0,0,1,205.978,176.714Z" transform="translate(-183.056 -164.549)" fill="#adbcc9"/>
</svg>
