<svg xmlns="http://www.w3.org/2000/svg" width="33" height="34" viewBox="0 0 33 34">
  <g id="viber-3" transform="translate(-0.325)">
    <ellipse id="Ellipse_100" data-name="Ellipse 100" cx="16.5" cy="17" rx="16.5" ry="17" transform="translate(0.325)" fill="#6f3faa"/>
    <g id="Group_2001" data-name="Group 2001" transform="translate(7.482 7.17)">
      <path id="Path_706" data-name="Path 706" d="M132.391,114.083l-.006-.022a6.4,6.4,0,0,0-4.323-4.159l-.021,0a24.023,24.023,0,0,0-9.042,0l-.022,0a6.405,6.405,0,0,0-4.323,4.159l0,.022a17.7,17.7,0,0,0,0,7.624l0,.022a6.458,6.458,0,0,0,4.085,4.1v2.022a.813.813,0,0,0,1.4.563l2.049-2.129c.444.025.889.039,1.333.039a24.108,24.108,0,0,0,4.521-.429l.021,0a6.4,6.4,0,0,0,4.323-4.159l.005-.022A17.7,17.7,0,0,0,132.391,114.083Zm-1.621,7.257a4.843,4.843,0,0,1-3.051,2.922,22.39,22.39,0,0,1-4.81.389.113.113,0,0,0-.085.034l-1.5,1.535-1.591,1.633a.186.186,0,0,1-.321-.129v-3.349a.116.116,0,0,0-.094-.113h0a4.844,4.844,0,0,1-3.051-2.922,16.06,16.06,0,0,1,0-6.891,4.844,4.844,0,0,1,3.051-2.922,22.374,22.374,0,0,1,8.4,0,4.841,4.841,0,0,1,3.051,2.922A16.043,16.043,0,0,1,130.769,121.341Z" transform="translate(-114.234 -109.468)" fill="#fff"/>
      <path id="Path_707" data-name="Path 707" d="M189.675,182.693c-.187-.057-.366-.1-.532-.164a12.078,12.078,0,0,1-4.552-3.042,11.81,11.81,0,0,1-1.741-2.664c-.223-.454-.412-.926-.6-1.4a1.21,1.21,0,0,1,.354-1.192,2.8,2.8,0,0,1,.938-.7.6.6,0,0,1,.753.178,9.7,9.7,0,0,1,1.165,1.63.776.776,0,0,1-.217,1.051c-.088.06-.168.13-.251.2a.821.821,0,0,0-.189.2.546.546,0,0,0-.036.48,4.341,4.341,0,0,0,2.438,2.7,1.241,1.241,0,0,0,.625.152c.382-.045.506-.464.773-.682a.729.729,0,0,1,.878-.038c.282.178.555.37.827.563a9.431,9.431,0,0,1,.778.592.617.617,0,0,1,.185.764,2.583,2.583,0,0,1-1.11,1.223,2.684,2.684,0,0,1-.48.153C189.488,182.636,189.838,182.643,189.675,182.693Z" transform="translate(-177.739 -169.275)" fill="#fff"/>
      <path id="Path_708" data-name="Path 708" d="M250.293,165.413a4.566,4.566,0,0,1,4.489,3.776c.067.379.091.766.121,1.15a.27.27,0,0,1-.253.317c-.18,0-.261-.149-.273-.31-.023-.32-.039-.641-.083-.958a4.015,4.015,0,0,0-3.234-3.356c-.251-.045-.507-.056-.761-.083-.161-.017-.371-.027-.406-.226a.274.274,0,0,1,.271-.309c.043,0,.087,0,.13,0C252.54,165.476,250.249,165.413,250.293,165.413Z" transform="translate(-241.002 -161.748)" fill="#fff"/>
      <path id="Path_709" data-name="Path 709" d="M259.6,186.98a1.031,1.031,0,0,1-.022.156.255.255,0,0,1-.48.026.677.677,0,0,1-.027-.217,2.722,2.722,0,0,0-.344-1.366,2.542,2.542,0,0,0-1.066-1,3.064,3.064,0,0,0-.85-.261c-.128-.021-.257-.034-.386-.052a.244.244,0,0,1-.232-.275.242.242,0,0,1,.269-.239,3.533,3.533,0,0,1,1.472.384,2.978,2.978,0,0,1,1.62,2.314c.007.047.018.094.022.141.009.117.014.234.023.388C259.592,187.008,259.587,186.826,259.6,186.98Z" transform="translate(-246.89 -178.887)" fill="#fff"/>
      <path id="Path_710" data-name="Path 710" d="M263.069,204.489a.278.278,0,0,1-.308-.273,2.824,2.824,0,0,0-.053-.359,1.01,1.01,0,0,0-.373-.585.976.976,0,0,0-.3-.147c-.138-.04-.281-.029-.419-.063a.257.257,0,0,1-.209-.3.27.27,0,0,1,.285-.217,1.545,1.545,0,0,1,1.583,1.539.713.713,0,0,1,0,.218.224.224,0,0,1-.2.184C262.881,204.492,263.155,204.483,263.069,204.489Z" transform="translate(-251.761 -196.45)" fill="#fff"/>
    </g>
    <path id="Path_712" data-name="Path 712" d="M295.66,313.753c.163-.05-.187-.057,0,0Z" transform="translate(-276.241 -293.165)" fill="#fff"/>
    <g id="Group_2002" data-name="Group 2002" transform="translate(16.773 10.836)">
      <path id="Path_714" data-name="Path 714" d="M256.07,165.427h0Z" transform="translate(-256.064 -165.427)" fill="#fff"/>
      <path id="Path_715" data-name="Path 715" d="M256.072,165.426h.006C256.2,165.431,258.231,165.487,256.072,165.426Z" transform="translate(-256.071 -165.426)" fill="#fff"/>
    </g>
    <g id="Group_2004" data-name="Group 2004" transform="translate(18.723 15.2)">
      <path id="Path_718" data-name="Path 718" d="M308.142,232.124c-.009-.154,0,.028,0,0Z" transform="translate(-306.676 -232.061)" fill="#fff"/>
      <path id="Path_719" data-name="Path 719" d="M286.529,232.159l.009,0h-.009Z" transform="translate(-286.462 -232.151)" fill="#fff"/>
      <path id="Path_720" data-name="Path 720" d="M285.909,232.168h-.024C285.844,232.168,285.8,232.17,285.909,232.168Z" transform="translate(-285.842 -232.16)" fill="#fff"/>
      <path id="Path_721" data-name="Path 721" d="M286.881,232.157l-.009,0C286.894,232.158,286.892,232.157,286.881,232.157Z" transform="translate(-286.805 -232.151)" fill="#fff"/>
    </g>
  </g>
</svg>
