<svg id="commerce-2" xmlns="http://www.w3.org/2000/svg" width="94.2" height="26.963" viewBox="0 0 94.2 26.963">
  <g id="Group_2014" data-name="Group 2014" transform="translate(7.815 0)">
    <path id="Path_35" data-name="Path 35" d="M175.483,201.492l4.44-26.119h7.189l-4.44,26.119Z" transform="translate(-149.636 -174.95)" fill="#293688"/>
    <path id="Path_36" data-name="Path 36" d="M242.816,174.743a18.731,18.731,0,0,0-6.444-1.1c-7.1,0-12.109,3.544-12.152,8.621-.039,3.753,3.572,5.846,6.3,7.1,2.8,1.278,3.739,2.1,3.725,3.24-.017,1.751-2.236,2.551-4.3,2.551a15.218,15.218,0,0,1-6.767-1.371l-.926-.416-1.01,5.848a22.939,22.939,0,0,0,8.01,1.394c7.556,0,12.463-3.5,12.519-8.925.027-2.971-1.888-5.233-6.036-7.1-2.513-1.207-4.053-2.013-4.036-3.238,0-1.085,1.3-2.246,4.117-2.246a13.373,13.373,0,0,1,5.382,1l.643.3.977-5.662Z" transform="translate(-182.628 -173.647)" fill="#293688"/>
    <path id="Path_37" data-name="Path 37" d="M315.067,175.373a3.574,3.574,0,0,0-3.724,2.224l-10.654,23.9H308.3l1.48-4h9.094l.845,4h6.766l-5.92-26.12h-5.5ZM311.8,192.264c.594-1.5,2.863-7.3,2.863-7.3-.041.069.591-1.511.954-2.492l.487,2.251s1.375,6.235,1.664,7.542H311.8Z" transform="translate(-240.099 -174.95)" fill="#293688"/>
    <path id="Path_38" data-name="Path 38" d="M89.319,193.277l-.633-3.581c-1.312-4.174-5.384-8.69-9.947-10.953l6.351,22.749H92.7l11.417-26.119H96.509Z" transform="translate(-78.739 -174.95)" fill="#293688"/>
  </g>
  <g id="Group_2015" data-name="Group 2015" transform="translate(0 0.423)">
    <path id="Path_39" data-name="Path 39" d="M46.823,175.373v.423c9.02,2.17,15.283,7.654,17.762,13.955l-2.607-12.141c-.435-1.659-1.754-2.18-3.314-2.237Z" transform="translate(-46.823 -175.373)" fill="#f7981d"/>
  </g>
</svg>
