<svg xmlns="http://www.w3.org/2000/svg" width="34" height="34" viewBox="0 0 34 34">
  <g id="brands-and-logotypes" transform="translate(0.333)">
    <circle id="Ellipse_99" data-name="Ellipse 99" cx="17" cy="17" r="17" transform="translate(-0.333)" fill="#75b73b"/>
    <g id="Group_1999" data-name="Group 1999" transform="translate(7.13 7.053)">
      <path id="Path_701" data-name="Path 701" d="M118.545,108.287a9.548,9.548,0,0,0-8.039,13.868l-1.013,4.919a.372.372,0,0,0,.45.436l4.82-1.142a9.545,9.545,0,1,0,3.783-18.081Zm5.751,14.818a7.479,7.479,0,0,1-8.611,1.409l-.671-.334-2.955.7.622-3.019-.331-.648a7.48,7.48,0,0,1,1.376-8.677A7.474,7.474,0,0,1,124.3,123.105Z" transform="translate(-109.467 -108.276)" fill="#fff"/>
      <path id="Path_702" data-name="Path 702" d="M191.614,190.846l-1.849-.531a.69.69,0,0,0-.682.18l-.452.461a.673.673,0,0,1-.732.155,9.869,9.869,0,0,1-3.184-2.808.673.673,0,0,1,.053-.747l.395-.511a.689.689,0,0,0,.085-.7l-.778-1.759a.689.689,0,0,0-1.077-.246,3.109,3.109,0,0,0-1.2,1.834c-.131,1.3.424,2.928,2.525,4.889,2.427,2.265,4.37,2.564,5.636,2.258A3.107,3.107,0,0,0,192,191.879a.69.69,0,0,0-.391-1.033Z" transform="translate(-177.437 -179.232)" fill="#fff"/>
    </g>
  </g>
</svg>
